<svg class="marks" width="257" height="250" viewBox="0 0 257 250" version="1.1" xmlns="http://www.w3.org/2000/svg" xmlns:xlink="http://www.w3.org/1999/xlink"><rect width="257" height="250" style="fill: #f9f9f9;"></rect><g transform="translate(52,5)"><g class="mark-group role-frame root"><g transform="translate(0,0)"><path class="background" d="M0.5,0.5h200v200h-200Z" style="fill: none; stroke: #ddd;"></path><g><g class="mark-group role-axis"><g transform="translate(0.5,200.5)"><path class="background" d="M0,0h0v0h0Z" style="pointer-events: none; fill: none;"></path><g><g class="mark-rule role-axis-grid" style="pointer-events: none;"><line transform="translate(4,-200)" x2="0" y2="200" style="fill: none; stroke: #ddd; stroke-width: 0.2; opacity: 1;"></line><line transform="translate(30,-200)" x2="0" y2="200" style="fill: none; stroke: #ddd; stroke-width: 0.2; opacity: 1;"></line><line transform="translate(55,-200)" x2="0" y2="200" style="fill: none; stroke: #ddd; stroke-width: 0.2; opacity: 1;"></line><line transform="translate(80,-200)" x2="0" y2="200" style="fill: none; stroke: #ddd; stroke-width: 0.2; opacity: 1;"></line><line transform="translate(106,-200)" x2="0" y2="200" style="fill: none; stroke: #ddd; stroke-width: 0.2; opacity: 1;"></line><line transform="translate(131,-200)" x2="0" y2="200" style="fill: none; stroke: #ddd; stroke-width: 0.2; opacity: 1;"></line><line transform="translate(156,-200)" x2="0" y2="200" style="fill: none; stroke: #ddd; stroke-width: 0.2; opacity: 1;"></line><line transform="translate(182,-200)" x2="0" y2="200" style="fill: none; stroke: #ddd; stroke-width: 0.2; opacity: 1;"></line></g></g></g></g><g class="mark-group role-axis"><g transform="translate(0.5,0.5)"><path class="background" d="M0,0h0v0h0Z" style="pointer-events: none; fill: none;"></path><g><g class="mark-rule role-axis-grid" style="pointer-events: none;"><line transform="translate(0,200)" x2="200" y2="0" style="fill: none; stroke: #ddd; stroke-width: 0.2; opacity: 1;"></line><line transform="translate(0,156)" x2="200" y2="0" style="fill: none; stroke: #ddd; stroke-width: 0.2; opacity: 1;"></line><line transform="translate(0,111)" x2="200" y2="0" style="fill: none; stroke: #ddd; stroke-width: 0.2; opacity: 1;"></line><line transform="translate(0,67)" x2="200" y2="0" style="fill: none; stroke: #ddd; stroke-width: 0.2; opacity: 1;"></line><line transform="translate(0,22)" x2="200" y2="0" style="fill: none; stroke: #ddd; stroke-width: 0.2; opacity: 1;"></line></g></g></g></g><g class="mark-rect role-mark marks"><path d="M2.500000120949074,188.8h5v11.199999999999989h-5Z" style="fill: #4c78a8;"></path><path d="M15.166666781262862,185.44444444444446h5v14.555555555555543h-5Z" style="fill: #4c78a8;"></path><path d="M27.83333344157665,180.88888888888889h5v19.111111111111114h-5Z" style="fill: #4c78a8;"></path><path d="M40.500000101890436,177.42222222222222h5v22.577777777777783h-5Z" style="fill: #4c78a8;"></path><path d="M53.16666676220422,170.4h5v29.599999999999994h-5Z" style="fill: #4c78a8;"></path><path d="M65.83333342251801,163.42222222222222h5v36.57777777777778h-5Z" style="fill: #4c78a8;"></path><path d="M78.50000008283179,155.26666666666665h5v44.73333333333335h-5Z" style="fill: #4c78a8;"></path><path d="M91.16666674314558,146.93333333333334h5v53.06666666666666h-5Z" style="fill: #4c78a8;"></path><path d="M103.83333340345936,137.46666666666667h5v62.53333333333333h-5Z" style="fill: #4c78a8;"></path><path d="M116.50000006377316,127.91111111111111h5v72.08888888888889h-5Z" style="fill: #4c78a8;"></path><path d="M129.16666672408692,112.8h5v87.2h-5Z" style="fill: #4c78a8;"></path><path d="M141.83333338440073,91.64444444444445h5v108.35555555555555h-5Z" style="fill: #4c78a8;"></path><path d="M154.5000000447145,76.44444444444444h5v123.55555555555556h-5Z" style="fill: #4c78a8;"></path><path d="M167.1666667050283,57.82222222222222h5v142.17777777777778h-5Z" style="fill: #4c78a8;"></path><path d="M179.83333336534207,28.95555555555555h5v171.04444444444445h-5Z" style="fill: #4c78a8;"></path><path d="M192.50000002565588,21.555555555555543h5v178.44444444444446h-5Z" style="fill: #4c78a8;"></path></g><g class="mark-group role-axis"><g transform="translate(0.5,200.5)"><path class="background" d="M0,0h0v0h0Z" style="pointer-events: none; fill: none;"></path><g><g class="mark-rule role-axis-tick" style="pointer-events: none;"><line transform="translate(4,0)" x2="0" y2="10" style="fill: none; stroke: #979797; stroke-width: 0.2; opacity: 1;"></line><line transform="translate(30,0)" x2="0" y2="10" style="fill: none; stroke: #979797; stroke-width: 0.2; opacity: 1;"></line><line transform="translate(55,0)" x2="0" y2="10" style="fill: none; stroke: #979797; stroke-width: 0.2; opacity: 1;"></line><line transform="translate(80,0)" x2="0" y2="10" style="fill: none; stroke: #979797; stroke-width: 0.2; opacity: 1;"></line><line transform="translate(106,0)" x2="0" y2="10" style="fill: none; stroke: #979797; stroke-width: 0.2; opacity: 1;"></line><line transform="translate(131,0)" x2="0" y2="10" style="fill: none; stroke: #979797; stroke-width: 0.2; opacity: 1;"></line><line transform="translate(156,0)" x2="0" y2="10" style="fill: none; stroke: #979797; stroke-width: 0.2; opacity: 1;"></line><line transform="translate(182,0)" x2="0" y2="10" style="fill: none; stroke: #979797; stroke-width: 0.2; opacity: 1;"></line></g><g class="mark-text role-axis-label" style="pointer-events: none;"><text text-anchor="middle" transform="translate(4.472222343436,20)" style="font-family: sans-serif; font-size: 10px; fill: #979797; opacity: 1;">Fri 13</text><text text-anchor="middle" transform="translate(29.805555664063572,20)" style="font-family: sans-serif; font-size: 10px; fill: #979797; opacity: 0;">Mar 15</text><text text-anchor="middle" transform="translate(55.13888898469115,20)" style="font-family: sans-serif; font-size: 10px; fill: #979797; opacity: 1;">Tue 17</text><text text-anchor="middle" transform="translate(80.47222230531872,20)" style="font-family: sans-serif; font-size: 10px; fill: #979797; opacity: 0;">Thu 19</text><text text-anchor="middle" transform="translate(105.80555562594628,20)" style="font-family: sans-serif; font-size: 10px; fill: #979797; opacity: 1;">Sat 21</text><text text-anchor="middle" transform="translate(131.13888894657387,20)" style="font-family: sans-serif; font-size: 10px; fill: #979797; opacity: 0;">Mon 23</text><text text-anchor="middle" transform="translate(156.47222226720143,20)" style="font-family: sans-serif; font-size: 10px; fill: #979797; opacity: 1;">Wed 25</text><text text-anchor="middle" transform="translate(181.805555587829,20)" style="font-family: sans-serif; font-size: 10px; fill: #979797; opacity: 0;">Fri 27</text></g><g class="mark-rule role-axis-domain" style="pointer-events: none;"><line transform="translate(0,0)" x2="200" y2="0" style="fill: none; stroke: #979797; stroke-width: 0.5; opacity: 1;"></line></g><g class="mark-text role-axis-title" style="pointer-events: none;"><text text-anchor="middle" transform="translate(100,36)" style="font-family: sans-serif; font-size: 11px; font-weight: bold; fill: #979797; opacity: 1;">date(date)</text></g></g></g></g><g class="mark-group role-axis"><g transform="translate(0.5,0.5)"><path class="background" d="M0,0h0v0h0Z" style="pointer-events: none; fill: none;"></path><g><g class="mark-rule role-axis-tick" style="pointer-events: none;"><line transform="translate(0,200)" x2="0" y2="0" style="fill: none; stroke: #979797; stroke-width: 0.2; opacity: 1;"></line><line transform="translate(0,156)" x2="0" y2="0" style="fill: none; stroke: #979797; stroke-width: 0.2; opacity: 1;"></line><line transform="translate(0,111)" x2="0" y2="0" style="fill: none; stroke: #979797; stroke-width: 0.2; opacity: 1;"></line><line transform="translate(0,67)" x2="0" y2="0" style="fill: none; stroke: #979797; stroke-width: 0.2; opacity: 1;"></line><line transform="translate(0,22)" x2="0" y2="0" style="fill: none; stroke: #979797; stroke-width: 0.2; opacity: 1;"></line></g><g class="mark-text role-axis-label" style="pointer-events: none;"><text text-anchor="end" transform="translate(-2,203)" style="font-family: sans-serif; font-size: 10px; fill: #979797; opacity: 1;">0</text><text text-anchor="end" transform="translate(-2,158.55555555555554)" style="font-family: sans-serif; font-size: 10px; fill: #979797; opacity: 1;">2,000</text><text text-anchor="end" transform="translate(-2,114.11111111111111)" style="font-family: sans-serif; font-size: 10px; fill: #979797; opacity: 1;">4,000</text><text text-anchor="end" transform="translate(-2,69.66666666666669)" style="font-family: sans-serif; font-size: 10px; fill: #979797; opacity: 1;">6,000</text><text text-anchor="end" transform="translate(-2,25.22222222222223)" style="font-family: sans-serif; font-size: 10px; fill: #979797; opacity: 1;">8,000</text></g><g class="mark-text role-axis-title" style="pointer-events: none;"><text text-anchor="middle" transform="translate(-34,100) rotate(-90) translate(0,-2)" style="font-family: sans-serif; font-size: 11px; font-weight: bold; fill: #979797; opacity: 1;">max(confirmed)</text></g></g></g></g></g></g></g></g></svg>